<svg xmlns="http://www.w3.org/2000/svg" fill="none" viewBox="0 0 195 196">
  <path fill="currentColor" fill-opacity=".4" d="M26.607 6.393C20.749.536 11.25.536 5.393 6.393c-5.857 5.858-5.857 15.356 0 21.214L26.607 6.393Zm33.786 76.214L71 93.213 92.213 72 81.607 61.393 60.393 82.607Zm-55-55 55 55 21.214-21.214-55-55L5.393 27.607ZM133.607 113.393 123 102.787 101.787 124l10.606 10.607 21.214-21.214Zm34.421 76.848c5.858 5.858 15.355 5.858 21.213 0 5.858-5.858 5.858-15.355 0-21.213l-21.213 21.213Zm-55.635-55.634 55.635 55.634 21.213-21.213-55.634-55.635-21.214 21.214Z"/>
  <path stroke="currentColor" stroke-linecap="round" stroke-width="30" d="M17 177.706 177.413 17.294M15 181h165M15 15h165"/>
</svg>